<?xml version="1.0" encoding="UTF-8"?>
<!DOCTYPE svg PUBLIC "-//W3C//DTD SVG 1.1//EN" "http://www.w3.org/Graphics/SVG/1.1/DTD/svg11.dtd">
<!-- Creator: CorelDRAW 2020 (64-Bit) -->
<svg xmlns="http://www.w3.org/2000/svg" xml:space="preserve" width="85.067mm" height="85.4721mm" version="1.1" style="shape-rendering:geometricPrecision; text-rendering:geometricPrecision; image-rendering:optimizeQuality; fill-rule:evenodd; clip-rule:evenodd"
viewBox="0 0 7107.9 7141.75"
 xmlns:xlink="http://www.w3.org/1999/xlink"
 xmlns:xodm="http://www.corel.com/coreldraw/odm/2003">
 <defs>
  <style type="text/css">
   <![CDATA[
    .str0 {stroke:#FEFEFE;stroke-width:16.71;stroke-miterlimit:22.9256}
    .fil0 {fill:#FEFEFE;fill-rule:nonzero}
   ]]>
  </style>
 </defs>
 <g id="Слой_x0020_1">
  <metadata id="CorelCorpID_0Corel-Layer"/>
  <path class="fil0 str0" d="M5062.44 132.61c-44.82,79.38 -855.38,160.47 -1026.45,252.51 -66.38,36.61 -145.76,132.75 -209.74,169.03 -53.45,31.93 -113.5,51.79 -175.51,57.82 -131.34,15.28 -247.16,93.62 -310.35,209.74 -44.96,83.89 -115.78,151.28 -201.85,191.95 -180,86.21 -338.08,208.36 -402.4,422.2 -40.72,130.7 -76.98,244.29 -147.81,233.35 -592.61,-76.98 -1300.17,164.92 -1300.17,164.92 581.32,-1793.56 2931.21,-1731.28 3774.27,-1701.51z"/>
  <path class="fil0 str0" d="M3731.12 6593.78c-288.4,-255.01 -501.91,-584.91 -615.99,-952.59 -124.2,-410.58 -139.26,-718.52 -526.57,-907.38 -153.97,-74.93 -269.61,-132.75 -472.85,-177.57 -177.57,-40.72 -680.53,-66.38 -843.06,-66.38 -1.02,0.03 -2.22,0.07 -3.39,0.07 -46.73,0 -90.44,-23.25 -116.57,-61.97l0 -2.4c-144.4,-229.91 48.91,-509.11 372.25,-511.16 468.74,-2.4 928.6,59.88 1361.08,246.01 164.57,70.48 318.88,164.92 479.01,248.06 -6.5,8.56 -307.94,17.1 -502.96,8.56 76.98,66.38 620.66,241.9 868.72,2176.76l0.33 -0.01z"/>
  <path class="fil0 str0" d="M3916.57 4757.46c-173.13,577.89 -34.22,1142.79 406.82,1676.54 53.38,64.32 119.75,119.75 201.19,199.13 -83.48,-209.74 -164.92,-389.71 -226.85,-573.79 -318.88,-806.79 -32.16,-1950.26 -15.06,-2193.52 -13,4.1 -273.72,590.55 -366.1,889.59l0 2.06z"/>
  <path class="fil0 str0" d="M4467.43 3822.37c-243.95,752.74 -8.56,1547.21 684.3,2360.84 -299.38,-642.21 -584.05,-1262.88 -158.07,-3503.28 -17.1,2.06 -396.21,752.74 -524.52,1142.79l-1.71 -0.34z"/>
  <path class="fil0 str0" d="M2644.11 5602.91c-100.59,554.28 -462.24,1119.17 -462.24,1119.17 -102.65,-134.81 -192.63,-248.41 -293.22,-378.76 -74.93,57.83 -483.8,757.53 -1872.59,789.69 498.51,-731.86 828.35,-1525.99 1174.95,-2319.78l-27.72 716.8c0,0 380.82,-261.06 468.4,-828.35 8.56,2.4 676.43,-61.93 918.34,344.55 71.62,121.61 109.48,260.3 109.48,401.49 0,52.06 -5.21,104.2 -15.36,155.2l-0.03 -0.01z"/>
  <path class="fil0 str0" d="M4368.89 3246.52c-374.65,303.81 -611.73,745.88 -657.65,1226.17 -479.01,-646.33 -999.42,-618.61 -1427.45,-727.75 201.19,-72.54 239.51,-183.73 239.51,-183.73 -269.61,-126.6 -464.64,-389.71 -464.64,-389.71 -36.27,-32.16 353.1,102.65 667.88,47.22 498.51,-89.98 186.13,-644.27 1273.48,-475.24 -442.02,-258.58 -836.17,-299.64 -1336.74,-322.9 28.66,-52.59 48.32,-109.88 57.82,-169.04 -365.76,100.59 -834.5,-19.5 -1112.67,305.88 -21.56,-32.16 -60.22,-83.48 -94.44,-136.86 -145.41,-224.78 -72.54,-368.14 197.08,-414.67 973.76,-173.13 1642.33,-10.6 2240.74,286.72 79.04,38.66 477.3,241.9 -252.51,1363.47 46.88,-64.32 701.75,-712.7 738.36,-967.26 22.09,40.75 40.07,83.85 53.38,128.28 51.32,166.97 25.66,305.88 -122.15,430.08l0 -0.67z"/>
  <path class="fil0 str0" d="M5982.82 1878.94c-66.38,151.91 -173.47,207.69 -327.44,224.79 14.71,-40.72 23.26,-68.43 40.37,-122.15 -188.19,-6.16 -363.7,-10.6 -566.95,-17.1 284.67,-177.57 564.89,-100.59 855.38,-85.54l-1.36 0z"/>
  <path class="fil0 str0" d="M6744.44 1390.01c-160.47,269.61 -554.28,428.03 -862.22,338.04 44.82,-44.82 87.59,-85.54 145.41,-138.91 -271.67,-51.32 -518.02,-4.45 -770.52,44.82 34.96,-51.65 78.42,-97.31 128.29,-134.78 134.81,-94.09 291.17,-124.2 451.64,-121.81 303.83,2.06 605.61,8.56 907.38,12.66l0.02 -0.02z"/>
  <path class="fil0 str0" d="M6258.59 1184.72c51.66,-40.72 100.59,-79.38 171.07,-132.75 -483.8,-83.48 -1001.82,147.47 -1007.98,134.81 91.69,-76.98 175.18,-166.97 278.17,-231.29 194.69,-123.86 419.48,-145.41 643.93,-166.97 263.45,-25.66 533.07,-25.66 752.74,-217.95 44.82,387.32 -378.76,697.65 -834.85,615.87l-3.08 -1.71z"/>
  <path class="fil0 str0" d="M5011.45 1230.57c6.5,-34.22 10.6,-59.88 17.1,-94.09 -250.45,2.06 -475.24,53.38 -689.09,188.19 17.7,-38.09 37.89,-75.42 59.95,-111.16 78.14,-116.06 198.84,-196.85 335.91,-224.83 250.45,-53.38 505.02,-87.59 757.52,-130.36 2.06,8.56 -109.15,312.38 -481.4,372.26l0.01 -0.01z"/>
  <path class="fil0 str0" d="M5184.58 1470.42c-68.43,190.23 -184.07,280.22 -333.94,307.94 -175.53,-151.91 -325.39,-2.06 -505.02,17.1 222.39,-297.33 547.45,-235.4 838.96,-325.04z"/>
  <path class="fil0 str0" d="M6708.18 571.58c-241.9,119.75 -502.96,126.25 -768.47,128.31 -303.83,2.06 -607.66,8.56 -907.38,34.22 -252.51,23.6 -500.57,89.98 -684.3,286.72 -199.13,216.24 -276.11,466.7 -169.03,752.74 98.54,269.61 312.38,385.26 581.65,432.14 10.95,-25.66 17.1,-46.88 25.66,-63.98 38.66,-70.82 102.65,-113.6 177.92,-94.44 56.94,16.95 107.14,51.5 143.37,98.55 46.88,66.38 4.1,134.81 -47.22,184.07 -92.04,92.04 -213.85,109.15 -335.99,100.59 -817.4,-61.93 -1029.53,-855.38 -804.74,-1359.02 184.07,-408.87 515.96,-609.71 946.04,-684.3 226.85,-40.72 468.74,-32.16 678.49,-177.92 10.6,60.22 21.21,105.04 31.82,166.97 539.57,59.88 1063.75,57.82 1513.33,-355.15 -28.06,267.56 -160.81,441.04 -383.21,550.18l2.05 0.32z"/>
  <path class="fil0 str0" d="M1852.37 3721.77l0 0c-560.78,29.08 -707.22,-53.72 -604.58,-333.94 66.38,-177.57 327.44,-581.65 436.58,-752.74 29.77,-46.88 46.88,-76.98 49.27,-81.09 8.31,25.1 14.81,50.91 19.18,76.98 10.28,48.53 15.55,98.05 15.55,147.66 0,34.05 -2.51,68.19 -7.34,101.81 -2.06,10.95 -4.1,21.56 -6.5,32.16 -2.4,10.6 -2.06,13 -4.1,17.1 -53.72,235.4 -233.35,453.69 -318.88,633.67 -4.14,7.54 -7.7,15.47 -10.6,23.58 48.93,10.6 126.25,-13 203.23,-21.56l-0.02 0c76.98,-10.6 149.86,-6.5 194.69,61.93 17.1,28.89 28.08,61.09 32.17,94.42l1.35 0.02z"/>
 </g>
</svg>
