<?xml version="1.0" encoding="UTF-8"?>
<!DOCTYPE svg PUBLIC "-//W3C//DTD SVG 1.1//EN" "http://www.w3.org/Graphics/SVG/1.1/DTD/svg11.dtd">
<!-- Creator: CorelDRAW 2020 (64-Bit) -->
<svg xmlns="http://www.w3.org/2000/svg" xml:space="preserve" width="105mm" height="148mm" version="1.1" style="shape-rendering:geometricPrecision; text-rendering:geometricPrecision; image-rendering:optimizeQuality; fill-rule:evenodd; clip-rule:evenodd"
viewBox="0 0 10500 14800"
 xmlns:xlink="http://www.w3.org/1999/xlink"
 xmlns:xodm="http://www.corel.com/coreldraw/odm/2003">
 <defs>
  <style type="text/css">
   <![CDATA[
    .str1 {stroke:#EBECEC;stroke-width:20;stroke-miterlimit:22.9256}
    .str0 {stroke:#2B2A29;stroke-width:20;stroke-miterlimit:22.9256}
    .fil1 {fill:#EBECEC;fill-rule:nonzero}
    .fil0 {fill:#2B2A29;fill-rule:nonzero}
   ]]>
  </style>
 </defs>
 <g id="Слой_x0020_1">
  <metadata id="CorelCorpID_0Corel-Layer"/>
  <g id="_2533069113136">
   <g>
    <path class="fil0 str0" d="M3229.23 1460.85c-26.82,47.5 -511.86,96.02 -614.23,151.1 -39.72,21.91 -87.22,79.44 -125.51,101.14 -31.96,19.11 -67.9,30.99 -105,34.61 -78.59,9.15 -147.9,56.03 -185.7,125.51 -26.93,50.19 -69.3,90.51 -120.81,114.85 -107.71,51.59 -202.3,124.69 -240.79,252.65 -24.36,78.21 -46.07,146.19 -88.45,139.63 -354.61,-46.07 -778.02,98.69 -778.02,98.69 347.86,-1073.26 1754.03,-1035.99 2258.51,-1018.18z"/>
    <path class="fil0 str0" d="M2432.58 5327.2c-172.57,-152.6 -300.33,-350.01 -368.6,-570.03 -74.32,-245.69 -83.33,-429.96 -315.1,-542.98 -92.13,-44.84 -161.34,-79.44 -282.95,-106.26 -106.26,-24.36 -407.23,-39.72 -504.48,-39.72 -0.62,0.03 -1.34,0.05 -2.04,0.05 -27.96,0 -54.12,-13.91 -69.76,-37.09l0 -1.43c-86.41,-137.58 29.27,-304.65 222.75,-305.88 280.5,-1.43 555.67,35.83 814.46,147.21 98.48,42.18 190.82,98.69 286.64,148.44 -3.89,5.12 -184.27,10.24 -300.97,5.12 46.07,39.72 371.4,144.75 519.84,1302.57l0.21 0z"/>
    <path class="fil0 str0" d="M2543.55 4228.35c-103.6,345.81 -20.47,683.84 243.44,1003.24 31.94,38.49 71.66,71.66 120.39,119.16 -49.96,-125.51 -98.69,-233.2 -135.74,-343.35 -190.82,-482.78 -19.25,-1167.03 -9.01,-1312.6 -7.78,2.46 -163.79,353.39 -219.07,532.33l-0.01 1.22z"/>
    <path class="fil0 str0" d="M2873.19 3668.79c-145.98,450.43 -5.12,925.84 409.48,1412.72 -179.15,-384.3 -349.49,-755.7 -94.59,-2096.36 -10.24,1.23 -237.09,450.43 -313.87,683.84l-1.02 -0.2z"/>
    <path class="fil0 str0" d="M1782.11 4734.27c-60.19,331.68 -276.61,669.71 -276.61,669.71 -61.42,-80.67 -115.27,-148.64 -175.46,-226.65 -44.83,34.6 -289.5,453.3 -1120.55,472.54 298.31,-437.94 495.68,-913.15 703.08,-1388.15l-16.58 428.94c0,0 227.88,-156.22 280.29,-495.68 5.12,1.43 404.78,-37.06 549.53,206.18 42.86,72.75 65.51,155.74 65.51,240.23 0,31.15 -3.12,62.36 -9.19,92.87l-0.02 0.01z"/>
    <path class="fil0 str0" d="M2814.22 3324.21c-224.18,181.8 -366.05,446.31 -393.53,733.73 -286.64,-386.76 -598.05,-370.17 -854.18,-435.49 120.39,-43.41 143.32,-109.95 143.32,-109.95 -161.34,-75.75 -278.04,-233.2 -278.04,-233.2 -21.7,-19.25 211.29,61.42 399.66,28.25 298.31,-53.85 111.38,-385.53 762.05,-284.39 -264.52,-154.71 -500.38,-179.28 -799.92,-193.2 17.16,-31.46 28.92,-65.74 34.61,-101.15 -218.87,60.19 -499.37,-11.67 -665.82,183.04 -12.9,-19.25 -36.03,-49.96 -56.51,-81.9 -87.02,-134.51 -43.41,-220.29 117.92,-248.14 582.7,-103.6 982.76,-6.35 1340.86,171.57 47.3,23.14 285.62,144.75 -151.1,815.9 28.05,-38.49 419.93,-426.48 441.83,-578.81 13.23,24.4 23.99,50.19 31.95,76.78 30.71,99.91 15.36,183.04 -73.09,257.36l-0.01 -0.4z"/>
    <path class="fil0 str0" d="M3779.99 2505.85c-39.72,90.91 -103.8,124.28 -195.94,134.52 8.8,-24.36 13.92,-40.95 24.16,-73.09 -112.61,-3.69 -217.64,-6.35 -339.26,-10.24 170.35,-106.26 338.03,-60.19 511.86,-51.19l-0.82 0z"/>
    <path class="fil0 str0" d="M4235.75 2213.28c-96.02,161.34 -331.68,256.13 -515.95,202.29 26.82,-26.82 52.41,-51.19 87.02,-83.13 -162.57,-30.71 -309.98,-2.66 -461.08,26.82 20.91,-30.91 46.92,-58.24 76.76,-80.66 80.67,-56.3 174.24,-74.32 270.26,-72.89 181.81,1.23 362.39,5.12 542.98,7.58l0.01 -0.01z"/>
    <path class="fil0 str0" d="M3945.01 2090.43c30.92,-24.36 60.19,-47.5 102.37,-79.44 -289.51,-49.96 -599.49,88.24 -603.17,80.67 54.87,-46.07 104.83,-99.91 166.46,-138.41 116.5,-74.12 251.01,-87.02 385.32,-99.91 157.65,-15.36 318.99,-15.36 450.43,-130.42 26.82,231.77 -226.65,417.47 -499.57,368.54l-1.84 -1.03z"/>
    <path class="fil0 str0" d="M3198.73 2117.87c3.89,-20.47 6.35,-35.83 10.24,-56.3 -149.87,1.23 -284.39,31.94 -412.35,112.61 10.59,-22.8 22.68,-45.14 35.88,-66.53 46.75,-69.44 118.97,-117.78 200.99,-134.52 149.87,-31.94 302.2,-52.41 453.3,-78.01 1.23,5.12 -65.31,186.93 -288.07,222.76l0.01 -0.01z"/>
    <path class="fil0 str0" d="M3302.33 2261.39c-40.95,113.84 -110.15,167.68 -199.83,184.27 -105.03,-90.91 -194.71,-1.23 -302.2,10.24 133.08,-177.92 327.59,-140.86 502.03,-194.51z"/>
    <path class="fil0 str0" d="M4214.04 1723.53c-144.75,71.66 -300.97,75.55 -459.85,76.78 -181.81,1.23 -363.62,5.12 -542.98,20.47 -151.1,14.13 -299.54,53.85 -409.48,171.57 -119.16,129.4 -165.23,279.27 -101.14,450.43 58.97,161.34 186.93,230.54 348.06,258.59 6.55,-15.36 10.24,-28.05 15.36,-38.29 23.14,-42.38 61.42,-67.97 106.47,-56.51 34.07,10.17 64.1,30.84 85.79,58.99 28.05,39.72 2.46,80.67 -28.25,110.15 -55.08,55.08 -127.96,65.31 -201.06,60.19 -489.13,-37.06 -616.07,-511.86 -481.55,-813.24 110.15,-244.67 308.75,-364.85 566.11,-409.48 135.74,-24.36 280.5,-19.25 406,-106.47 6.35,36.03 12.69,62.86 19.04,99.91 322.88,35.83 636.54,34.6 905.57,-212.52 -16.79,160.11 -96.23,263.91 -229.31,329.23l1.22 0.2z"/>
    <path class="fil0 str0" d="M1308.34 3608.59l0 0c-335.57,17.41 -423.2,-32.14 -361.78,-199.82 39.72,-106.26 195.94,-348.06 261.25,-450.43 17.81,-28.05 28.05,-46.07 29.48,-48.52 4.98,15.01 8.87,30.46 11.49,46.06 6.16,29.03 9.31,58.66 9.31,88.35 0,20.38 -1.5,40.8 -4.4,60.92 -1.23,6.55 -2.46,12.9 -3.89,19.25 -1.43,6.35 -1.23,7.78 -2.46,10.24 -32.14,140.86 -139.63,271.49 -190.82,379.18 -2.48,4.51 -4.61,9.24 -6.35,14.1 29.28,6.35 75.55,-7.78 121.62,-12.9l-0.01 0.01c46.07,-6.35 89.68,-3.89 116.5,37.06 10.23,17.28 16.81,36.55 19.25,56.49l0.81 0.01z"/>
    <path class="fil0 str0" d="M5303.89 4953.14c-312.44,0 -571.17,-101.15 -776.18,-303.43 -205.01,-202.28 -463.74,-303.43 -305.27,-769.63 0,-311.21 101.96,-567.75 305.88,-769.62 203.92,-201.87 305.88,-458.41 775.57,-303.43 315.03,0 574.37,100.73 778.02,302.2 203.65,201.47 462.99,302.2 306.09,771.06 0,312.43 -102.03,569.38 -306.09,770.85 -204.74,202.29 -463.54,302.2 -778.02,302.2l0 -0.2zm-455.97 -583.93c115.27,128.17 266.16,193.48 455.96,193.48 189.8,0 340.69,-64.08 457.19,-193.48 116.5,-129.4 174.24,-290.73 174.24,-487.9 0,-197.17 -57.74,-359.94 -174.24,-487.9 -116.5,-127.96 -269.23,-193.48 -457.18,-193.48 -187.95,0 -340.69,64.08 -455.96,193.48 -115.27,129.4 -172.8,290.73 -172.8,487.9 0,197.17 59.16,358.91 172.79,487.9z"/>
    <path class="fil0 str0" d="M7335.89 4584.35c68.21,-0.51 135.36,-17.22 195.93,-48.51 58.6,-27.39 108.95,-69.81 145.97,-122.86l0 -532.33c-36.89,-53.08 -87.34,-95.54 -145.94,-122.85 -60.51,-31.33 -127.74,-48.1 -195.93,-48.74 -2.77,-0.04 -5.71,-0.08 -8.51,-0.08 -102.24,0 -199.33,45 -265.45,122.93 -70.43,80.67 -106.26,186.93 -106.26,317.56 0,130.63 35.83,233 106.26,313.67 66.47,77.24 163.41,121.74 265.35,121.74 2.82,0 5.81,-0.04 8.59,-0.09l-0.01 -0.44zm800.32 328.57l-397.81 0 0 -193.48c-122.85,153.76 -276.61,230.54 -463.54,230.54 -194.71,0 -354.82,-70.43 -478.89,-210.07 -124.07,-139.64 -186.93,-331.68 -186.93,-576.14 0,-240.78 62.31,-432.48 186.93,-575.12 124.07,-143.32 284.18,-214.98 478.89,-214.98 3.93,-0.05 8.08,-0.12 12.09,-0.12 178.74,0 346.8,85.9 451.47,230.68l-0.02 -764.53 398.43 0 0 2073.22 -0.62 0z"/>
    <path class="fil0 str0" d="M8709.16 3252.55c-0.96,0 -2.06,0.03 -3.05,0.03 -61.89,0 -121.12,-25.49 -163.63,-70.44 -44.96,-43.32 -70.42,-103.17 -70.42,-165.63 0,-0.25 0,-0.59 0,-0.84 0.01,-0.96 -0.02,-1.96 -0.02,-2.94 0,-61.51 25.55,-120.31 70.46,-162.29 42.82,-43.47 101.35,-68.01 162.39,-68.01 1.42,0 2.87,0.03 4.26,0.03 1.34,0.01 2.75,-0.02 4.1,-0.02 61.38,0 120.31,24.51 163.58,68 43.35,42.38 67.82,100.45 67.82,161.08 0,1.37 -0.03,2.8 -0.03,4.15 -0.01,0.5 -0.01,1.01 -0.01,1.5 0,61.76 -24.38,121.05 -67.77,164.97 -41.93,44.93 -100.67,70.49 -162.15,70.49 -1.84,0 -3.71,-0.05 -5.52,-0.08l-0.01 0zm199.62 1663.32l-394.33 0 0 -1501.99 394.33 0 0 1501.99z"/>
    <path class="fil0 str0" d="M10709.49 4915.87l-394.54 0 0 -907.82c0,-186.86 -92.2,-280.36 -276.61,-280.5 -3.28,-0.04 -6.69,-0.14 -10.01,-0.14 -133.2,0 -257.72,66.41 -331.89,177.02l-0.02 1011.44 -394.33 0 0 -1501.99 394.33 0 0 195.94c130.63,-154.92 305.62,-232.59 524.96,-232.99 161.34,0 282.95,42.18 364.85,127.96 81.9,85.78 122.85,202.29 122.85,350.93l0 1060.15 0.41 0z"/>
   </g>
   <g>
    <path class="fil1 str1" d="M3181.6 1418.69c-26.82,47.5 -511.86,96.02 -614.23,151.1 -39.72,21.91 -87.22,79.44 -125.51,101.14 -31.96,19.11 -67.9,30.99 -105,34.61 -78.59,9.15 -147.9,56.03 -185.7,125.51 -26.93,50.19 -69.3,90.51 -120.81,114.85 -107.71,51.59 -202.3,124.69 -240.79,252.65 -24.36,78.21 -46.07,146.19 -88.45,139.63 -354.61,-46.07 -778.02,98.69 -778.02,98.69 347.86,-1073.26 1754.03,-1035.99 2258.51,-1018.18z"/>
    <path class="fil1 str1" d="M2384.95 5285.04c-172.57,-152.6 -300.33,-350.01 -368.6,-570.03 -74.32,-245.69 -83.33,-429.96 -315.1,-542.98 -92.13,-44.84 -161.34,-79.44 -282.95,-106.26 -106.26,-24.36 -407.23,-39.72 -504.48,-39.72 -0.62,0.03 -1.34,0.05 -2.04,0.05 -27.96,0 -54.12,-13.91 -69.76,-37.09l0 -1.43c-86.41,-137.58 29.27,-304.65 222.75,-305.88 280.5,-1.43 555.67,35.83 814.46,147.21 98.48,42.18 190.82,98.69 286.64,148.44 -3.89,5.12 -184.27,10.24 -300.97,5.12 46.07,39.72 371.4,144.75 519.84,1302.57l0.21 0z"/>
    <path class="fil1 str1" d="M2495.92 4186.19c-103.6,345.81 -20.47,683.84 243.44,1003.24 31.94,38.49 71.66,71.66 120.39,119.16 -49.96,-125.51 -98.69,-233.2 -135.74,-343.35 -190.82,-482.78 -19.25,-1167.03 -9.01,-1312.6 -7.78,2.46 -163.79,353.39 -219.07,532.33l-0.01 1.22z"/>
    <path class="fil1 str1" d="M2825.56 3626.63c-145.98,450.43 -5.12,925.84 409.48,1412.72 -179.15,-384.3 -349.49,-755.7 -94.59,-2096.36 -10.24,1.23 -237.09,450.43 -313.87,683.84l-1.02 -0.2z"/>
    <path class="fil1 str1" d="M1734.48 4692.11c-60.19,331.68 -276.61,669.71 -276.61,669.71 -61.42,-80.67 -115.27,-148.64 -175.46,-226.65 -44.83,34.6 -289.5,453.3 -1120.55,472.54 298.31,-437.94 495.68,-913.15 703.08,-1388.15l-16.58 428.94c0,0 227.88,-156.22 280.29,-495.68 5.12,1.43 404.78,-37.06 549.53,206.18 42.86,72.75 65.51,155.74 65.51,240.23 0,31.15 -3.12,62.36 -9.19,92.87l-0.02 0.01z"/>
    <path class="fil1 str1" d="M2766.59 3282.05c-224.18,181.8 -366.05,446.31 -393.53,733.73 -286.64,-386.76 -598.05,-370.17 -854.18,-435.49 120.39,-43.41 143.32,-109.95 143.32,-109.95 -161.34,-75.75 -278.04,-233.2 -278.04,-233.2 -21.7,-19.25 211.29,61.42 399.66,28.25 298.31,-53.85 111.38,-385.53 762.05,-284.39 -264.52,-154.71 -500.38,-179.28 -799.92,-193.2 17.16,-31.46 28.92,-65.74 34.61,-101.15 -218.87,60.19 -499.37,-11.67 -665.82,183.04 -12.9,-19.25 -36.03,-49.96 -56.51,-81.9 -87.02,-134.51 -43.41,-220.29 117.92,-248.14 582.7,-103.6 982.76,-6.35 1340.86,171.57 47.3,23.14 285.62,144.75 -151.1,815.9 28.05,-38.49 419.93,-426.48 441.83,-578.81 13.23,24.4 23.99,50.19 31.95,76.78 30.71,99.91 15.36,183.04 -73.09,257.36l-0.01 -0.4z"/>
    <path class="fil1 str1" d="M3732.36 2463.69c-39.72,90.91 -103.8,124.28 -195.94,134.52 8.8,-24.36 13.92,-40.95 24.16,-73.09 -112.61,-3.69 -217.64,-6.35 -339.26,-10.24 170.35,-106.26 338.03,-60.19 511.86,-51.19l-0.82 0z"/>
    <path class="fil1 str1" d="M4188.12 2171.12c-96.02,161.34 -331.68,256.13 -515.95,202.29 26.82,-26.82 52.41,-51.19 87.02,-83.13 -162.57,-30.71 -309.98,-2.66 -461.08,26.82 20.91,-30.91 46.92,-58.24 76.76,-80.66 80.67,-56.3 174.24,-74.32 270.26,-72.89 181.81,1.23 362.39,5.12 542.98,7.58l0.01 -0.01z"/>
    <path class="fil1 str1" d="M3897.38 2048.27c30.92,-24.36 60.19,-47.5 102.37,-79.44 -289.51,-49.96 -599.49,88.24 -603.17,80.67 54.87,-46.07 104.83,-99.91 166.46,-138.41 116.5,-74.12 251.01,-87.02 385.32,-99.91 157.65,-15.36 318.99,-15.36 450.43,-130.42 26.82,231.77 -226.65,417.47 -499.57,368.54l-1.84 -1.03z"/>
    <path class="fil1 str1" d="M3151.1 2075.71c3.89,-20.47 6.35,-35.83 10.24,-56.3 -149.87,1.23 -284.39,31.94 -412.35,112.61 10.59,-22.8 22.68,-45.14 35.88,-66.53 46.75,-69.44 118.97,-117.78 200.99,-134.52 149.87,-31.94 302.2,-52.41 453.3,-78.01 1.23,5.12 -65.31,186.93 -288.07,222.76l0.01 -0.01z"/>
    <path class="fil1 str1" d="M3254.7 2219.23c-40.95,113.84 -110.15,167.68 -199.83,184.27 -105.03,-90.91 -194.71,-1.23 -302.2,10.24 133.08,-177.92 327.59,-140.86 502.03,-194.51z"/>
    <path class="fil1 str1" d="M4166.41 1681.37c-144.75,71.66 -300.97,75.55 -459.85,76.78 -181.81,1.23 -363.62,5.12 -542.98,20.47 -151.1,14.13 -299.54,53.85 -409.48,171.57 -119.16,129.4 -165.23,279.27 -101.14,450.43 58.97,161.34 186.93,230.54 348.06,258.59 6.55,-15.36 10.24,-28.05 15.36,-38.29 23.14,-42.38 61.42,-67.97 106.47,-56.51 34.07,10.17 64.1,30.84 85.79,58.99 28.05,39.72 2.46,80.67 -28.25,110.15 -55.08,55.08 -127.96,65.31 -201.06,60.19 -489.13,-37.06 -616.07,-511.86 -481.55,-813.24 110.15,-244.67 308.75,-364.85 566.11,-409.48 135.74,-24.36 280.5,-19.25 406,-106.47 6.35,36.03 12.69,62.86 19.04,99.91 322.88,35.83 636.54,34.6 905.57,-212.52 -16.79,160.11 -96.23,263.91 -229.31,329.23l1.22 0.2z"/>
    <path class="fil1 str1" d="M1260.71 3566.43l0 0c-335.57,17.41 -423.2,-32.14 -361.78,-199.82 39.72,-106.26 195.94,-348.06 261.25,-450.43 17.81,-28.05 28.05,-46.07 29.48,-48.52 4.98,15.01 8.87,30.46 11.49,46.06 6.16,29.03 9.31,58.66 9.31,88.35 0,20.38 -1.5,40.8 -4.4,60.92 -1.23,6.55 -2.46,12.9 -3.89,19.25 -1.43,6.35 -1.23,7.78 -2.46,10.24 -32.14,140.86 -139.63,271.49 -190.82,379.18 -2.48,4.51 -4.61,9.24 -6.35,14.1 29.28,6.35 75.55,-7.78 121.62,-12.9l-0.01 0.01c46.07,-6.35 89.68,-3.89 116.5,37.06 10.23,17.28 16.81,36.55 19.25,56.49l0.81 0.01z"/>
    <path class="fil1 str1" d="M5256.26 4910.98c-312.44,0 -571.17,-101.15 -776.18,-303.43 -205.01,-202.28 -463.74,-303.43 -305.27,-769.63 0,-311.21 101.96,-567.75 305.88,-769.62 203.92,-201.87 305.88,-458.41 775.57,-303.43 315.03,0 574.37,100.73 778.02,302.2 203.65,201.47 462.99,302.2 306.09,771.06 0,312.43 -102.03,569.38 -306.09,770.85 -204.74,202.29 -463.54,302.2 -778.02,302.2l0 -0.2zm-455.97 -583.93c115.27,128.17 266.16,193.48 455.96,193.48 189.8,0 340.69,-64.08 457.19,-193.48 116.5,-129.4 174.24,-290.73 174.24,-487.9 0,-197.17 -57.74,-359.94 -174.24,-487.9 -116.5,-127.96 -269.23,-193.48 -457.18,-193.48 -187.95,0 -340.69,64.08 -455.96,193.48 -115.27,129.4 -172.8,290.73 -172.8,487.9 0,197.17 59.16,358.91 172.79,487.9z"/>
    <path class="fil1 str1" d="M7288.26 4542.19c68.21,-0.51 135.36,-17.22 195.93,-48.51 58.6,-27.39 108.95,-69.81 145.97,-122.86l0 -532.33c-36.89,-53.08 -87.34,-95.54 -145.94,-122.85 -60.51,-31.33 -127.74,-48.1 -195.93,-48.74 -2.77,-0.04 -5.71,-0.08 -8.51,-0.08 -102.24,0 -199.33,45 -265.45,122.93 -70.43,80.67 -106.26,186.93 -106.26,317.56 0,130.63 35.83,233 106.26,313.67 66.47,77.24 163.41,121.74 265.35,121.74 2.82,0 5.81,-0.04 8.59,-0.09l-0.01 -0.44zm800.32 328.57l-397.81 0 0 -193.48c-122.85,153.76 -276.61,230.54 -463.54,230.54 -194.71,0 -354.82,-70.43 -478.89,-210.07 -124.07,-139.64 -186.93,-331.68 -186.93,-576.14 0,-240.78 62.31,-432.48 186.93,-575.12 124.07,-143.32 284.18,-214.98 478.89,-214.98 3.93,-0.05 8.08,-0.12 12.09,-0.12 178.74,0 346.8,85.9 451.47,230.68l-0.02 -764.53 398.43 0 0 2073.22 -0.62 0z"/>
    <path class="fil1 str1" d="M8661.53 3210.39c-0.96,0 -2.06,0.03 -3.05,0.03 -61.89,0 -121.12,-25.49 -163.63,-70.44 -44.96,-43.32 -70.42,-103.17 -70.42,-165.63 0,-0.25 0,-0.59 0,-0.84 0.01,-0.96 -0.02,-1.96 -0.02,-2.94 0,-61.51 25.55,-120.31 70.46,-162.29 42.82,-43.47 101.35,-68.01 162.39,-68.01 1.42,0 2.87,0.03 4.26,0.03 1.34,0.01 2.75,-0.02 4.1,-0.02 61.38,0 120.31,24.51 163.58,68 43.35,42.38 67.82,100.45 67.82,161.08 0,1.37 -0.03,2.8 -0.03,4.15 -0.01,0.5 -0.01,1.01 -0.01,1.5 0,61.76 -24.38,121.05 -67.77,164.97 -41.93,44.93 -100.67,70.49 -162.15,70.49 -1.84,0 -3.71,-0.05 -5.52,-0.08l-0.01 0zm199.62 1663.32l-394.33 0 0 -1501.99 394.33 0 0 1501.99z"/>
    <path class="fil1 str1" d="M10661.86 4873.71l-394.54 0 0 -907.82c0,-186.86 -92.2,-280.36 -276.61,-280.5 -3.28,-0.04 -6.69,-0.14 -10.01,-0.14 -133.2,0 -257.72,66.41 -331.89,177.02l-0.02 1011.44 -394.33 0 0 -1501.99 394.33 0 0 195.94c130.63,-154.92 305.62,-232.59 524.96,-232.99 161.34,0 282.95,42.18 364.85,127.96 81.9,85.78 122.85,202.29 122.85,350.93l0 1060.15 0.41 0z"/>
   </g>
  </g>
 </g>
</svg>
