<?xml version="1.0" encoding="UTF-8"?>
<!DOCTYPE svg PUBLIC "-//W3C//DTD SVG 1.1//EN" "http://www.w3.org/Graphics/SVG/1.1/DTD/svg11.dtd">
<!-- Creator: CorelDRAW 2020 (64-Bit) -->
<svg xmlns="http://www.w3.org/2000/svg" xml:space="preserve" width="89.0324mm" height="25.9105mm" version="1.1" style="shape-rendering:geometricPrecision; text-rendering:geometricPrecision; image-rendering:optimizeQuality; fill-rule:evenodd; clip-rule:evenodd"
viewBox="0 0 3108.17 904.55"
 xmlns:xlink="http://www.w3.org/1999/xlink"
 xmlns:xodm="http://www.corel.com/coreldraw/odm/2003">
 <defs>
  <style type="text/css">
   <![CDATA[
    .str0 {stroke:red;stroke-width:6.98;stroke-miterlimit:22.9256}
    .fil0 {fill:blue}
    .fil2 {fill:red;fill-rule:nonzero}
    .fil3 {fill:red;fill-rule:nonzero}
    .fil4 {fill:yellow;fill-rule:nonzero}
    .fil1 {fill:white;fill-rule:nonzero}
   ]]>
  </style>
 </defs>
 <g id="Слой_x0020_1">
  <metadata id="CorelCorpID_0Corel-Layer"/>
  <g id="_2697846469680">
   <rect class="fil0" x="0" y="360.23" width="3092.07" height="525.85"/>
   <path class="fil1" d="M1522.44 862.99c-34.78,0 -65.13,-7.85 -91.04,-23.54 -25.91,-15.69 -46.02,-37.19 -60.33,-64.49 -14.31,-27.3 -21.47,-58.36 -21.47,-93.19 0,-34.82 6.98,-65.89 20.93,-93.19 13.95,-27.3 33.24,-48.58 57.89,-63.85 24.64,-15.26 52.36,-22.89 83.16,-22.89 28.98,0 55.43,6.99 79.35,20.96 23.91,13.97 42.94,34.5 57.07,61.59 14.13,27.08 21.2,59.98 21.2,98.67 0,4.3 -0.18,9.24 -0.54,14.83 -0.36,5.59 -0.72,10.75 -1.09,15.48l-233.16 0 0 -64.49 178.27 0 -39.13 18.06c0.36,-15.91 -2.08,-29.66 -7.34,-41.27 -5.25,-11.61 -12.5,-20.64 -21.74,-27.09 -9.24,-6.45 -20.02,-9.67 -32.34,-9.67 -12.32,0 -23.1,3.23 -32.34,9.67 -9.24,6.45 -16.4,15.58 -21.47,27.41 -5.07,11.82 -7.61,25.69 -7.61,41.6l0 18.7c0,17.2 2.99,32.03 8.97,44.5 5.98,12.47 14.59,22.03 25.82,28.7 11.23,6.66 24.64,10 40.22,10 14.49,0 26.91,-2.48 37.23,-7.42 10.33,-4.94 20.56,-12.57 30.71,-22.89l54.35 67.07c-14.13,18.49 -31.52,32.57 -52.18,42.24 -20.65,9.67 -45.11,14.51 -73.37,14.51z"/>
   <path id="1" class="fil1" d="M1902.35 862.99c-26.45,0 -48.46,-6.45 -66.03,-19.35 -17.57,-12.9 -30.71,-32.68 -39.41,-59.33 -8.7,-26.65 -13.04,-60.84 -13.04,-102.54 0,-40.84 4.62,-74.59 13.86,-101.25 9.24,-26.65 22.74,-46.43 40.49,-59.33 17.75,-12.9 39.13,-19.35 64.13,-19.35 26.81,0 51.18,7.31 73.1,21.93 21.92,14.62 39.31,35.36 52.17,62.24 12.86,26.87 19.3,58.79 19.3,95.77 0,37.41 -6.43,69.54 -19.3,96.41 -12.86,26.87 -30.25,47.73 -52.17,62.56 -21.92,14.83 -46.29,22.25 -73.1,22.25zm-185.33 -5.81l0 -478.52 103.26 0 0 187.67 -5.43 115.44 0.54 115.44 0 59.98 -98.37 0zm163.59 -91.58c11.6,0 22.01,-3.22 31.25,-9.67 9.24,-6.45 16.67,-16.01 22.28,-28.7 5.62,-12.68 8.42,-27.84 8.42,-45.47 0,-17.63 -2.81,-32.57 -8.42,-44.82 -5.62,-12.25 -13.05,-21.6 -22.28,-28.05 -9.24,-6.45 -19.65,-9.67 -31.25,-9.67 -11.59,0 -22.01,3.22 -31.25,9.67 -9.24,6.45 -16.67,15.8 -22.28,28.05 -5.62,12.25 -8.42,27.2 -8.42,44.82 0,17.63 2.81,32.78 8.42,45.47 5.62,12.68 13.04,22.25 22.28,28.7 9.24,6.45 19.66,9.67 31.25,9.67z"/>
   <path class="fil1" d="M2413.09 861.92l0 -342.24 95 0 0 342.24 -95 0zm47.5 -380.13c-17.33,0 -31.33,-6.1 -42,-18.31 -10.67,-12.21 -16,-27.36 -16,-45.46 0,-18.1 5.33,-33.26 16,-45.46 10.67,-12.2 24.66,-18.31 42,-18.31 17.33,0 31.34,5.79 42,17.36 10.67,11.58 16,26.42 16,44.52 0,18.94 -5.25,34.62 -15.75,47.04 -10.5,12.42 -24.58,18.62 -42.25,18.62z"/>
   <path id="1" class="fil1" d="M2690.59 867.6c-34.67,0 -61.67,-10.84 -81,-32.52 -19.33,-21.68 -29,-54.41 -29,-98.19l0 -293.62 95 0 0 292.35c0,12.21 2.67,21.79 8,28.73 5.33,6.95 12.17,10.42 20.5,10.42 11.34,0 21,-3.58 29,-10.73l23.5 83.98c-8,6.73 -17.83,11.68 -29.5,14.84 -11.66,3.16 -23.83,4.74 -36.5,4.74zm-149.5 -245.63l0 -89.66 196.5 0 0 89.66 -196.5 0z"/>
   <path id="2" class="fil1" d="M2927.09 867.6c-32,0 -59.91,-7.68 -83.75,-23.05 -23.84,-15.36 -42.34,-36.41 -55.5,-63.14 -13.17,-26.73 -19.75,-57.15 -19.75,-91.24 0,-34.1 6.42,-64.51 19.25,-91.25 12.84,-26.73 30.59,-47.57 53.25,-62.51 22.67,-14.95 48.17,-22.42 76.5,-22.42 26.66,0 51,6.84 73,20.52 22,13.68 39.5,33.78 52.5,60.3 13,26.52 19.5,58.72 19.5,96.61 0,4.21 -0.16,9.05 -0.5,14.52 -0.34,5.47 -0.67,10.53 -1,15.15l-214.5 0 0 -63.14 164 0 -36 17.68c0.34,-15.57 -1.91,-29.05 -6.75,-40.41 -4.83,-11.37 -11.5,-20.21 -20,-26.52 -8.5,-6.32 -18.42,-9.47 -29.75,-9.47 -11.34,0 -21.25,3.16 -29.75,9.47 -8.5,6.32 -15.08,15.26 -19.75,26.84 -4.67,11.58 -7,25.15 -7,40.73l0 18.31c0,16.84 2.75,31.36 8.25,43.57 5.5,12.21 13.42,21.57 23.75,28.1 10.33,6.52 22.66,9.79 37,9.79 13.33,0 24.75,-2.42 34.25,-7.26 9.5,-4.84 18.91,-12.31 28.25,-22.42l50 65.67c-13,18.1 -29,31.89 -48,41.36 -19,9.47 -41.5,14.21 -67.5,14.21z"/>
   <path class="fil1" d="M569.32 872.22c-22.13,0 -42,-5.47 -59.6,-16.42 -17.61,-10.94 -31.35,-28.1 -41.24,-51.46 -9.89,-23.36 -14.83,-52.93 -14.83,-88.72l0 -191.32 95.56 0 0 171.75c0,26.52 3.94,45.46 11.82,56.83 7.88,11.37 19.03,17.05 33.44,17.05 9.39,0 17.94,-2.73 25.65,-8.21 7.72,-5.47 13.92,-14.21 18.61,-26.2 4.7,-12 7.04,-27.47 7.04,-46.41l0 -164.81 95.56 0 0 342.24 -91.03 0 0 -96.61 17.6 27.15c-9.39,25.26 -22.97,44.1 -40.74,56.51 -17.77,12.42 -37.05,18.63 -57.84,18.63z"/>
   <polygon class="fil1" points="833.26,904.55 661.47,52.21 815.86,52.21 960.41,790.09 882.45,790.09 1034.57,52.21 1172.31,52.21 1316.1,790.09 1241.18,790.09 1390.27,52.21 1533.3,52.21 1361.51,904.55 1201.07,904.55 1078.47,277.47 1121.6,277.47 993.7,904.55 "/>
   <polygon class="fil2" points="791.84,895.31 615.29,42.97 773.95,42.97 922.5,780.85 842.39,780.85 998.72,42.97 1140.27,42.97 1288.04,780.85 1211.05,780.85 1364.26,42.97 1511.26,42.97 1334.71,895.31 1169.82,895.31 1043.83,268.24 1088.16,268.24 956.72,895.31 "/>
   <path class="fil1" d="M2192.29 895.77c-46.83,0 -91.89,-8.82 -135.18,-26.45 -43.29,-17.64 -78.55,-40.4 -105.77,-68.29l53.09 -179.65c25.59,24.61 55.13,44.91 88.62,60.91 33.49,16 66.84,23.99 100.06,23.99 22.33,0 40.3,-3.08 53.91,-9.23 13.62,-6.15 23.55,-14.36 29.81,-24.61 6.26,-10.25 9.39,-22.35 9.39,-36.3 0,-19.69 -5.99,-35.27 -17.97,-46.76 -11.98,-11.49 -27.5,-20.92 -46.56,-28.3 -19.06,-7.38 -40.16,-14.76 -63.3,-22.15 -23.14,-7.38 -46.28,-16.82 -69.43,-28.3 -23.14,-11.48 -44.24,-26.45 -63.3,-44.91 -19.06,-18.46 -34.58,-42.66 -46.56,-72.6 -11.98,-29.94 -17.97,-67.88 -17.97,-113.82 0,-51.68 9.39,-98.44 28.18,-140.27 18.79,-41.84 46.97,-75.47 84.54,-100.9 37.57,-25.43 84.4,-38.14 140.49,-38.14 37.57,0 74.46,6.36 110.68,19.07 36.21,12.71 68.48,31.37 96.79,55.99l-49.82 180.87c-27.23,-22.15 -54.18,-38.76 -80.87,-49.83 -26.68,-11.08 -52.55,-16.61 -77.6,-16.61 -22.33,0 -40.3,3.49 -53.91,10.46 -13.61,6.98 -23.41,16.2 -29.41,27.69 -5.99,11.48 -8.99,24.61 -8.99,39.37 0,18.87 5.85,33.84 17.56,44.91 11.71,11.07 27.23,20.1 46.56,27.07 19.33,6.98 40.57,14.15 63.71,21.53 23.14,7.38 46.28,16.61 69.43,27.69 23.15,11.07 44.25,25.84 63.3,44.29 19.06,18.46 34.44,42.66 46.15,72.6 11.71,29.94 17.56,67.47 17.56,112.59 0,50.04 -9.39,96.18 -28.18,138.43 -18.79,42.25 -46.83,76.08 -84.13,101.51 -37.3,25.43 -84.27,38.14 -140.9,38.14z"/>
   <path class="fil3" d="M2158.14 900.39c-47.37,0 -92.95,-8.73 -136.74,-26.18 -43.79,-17.45 -79.46,-39.98 -107,-67.58l53.71 -177.77c25.89,24.35 55.77,44.44 89.65,60.27 33.87,15.83 67.61,23.74 101.21,23.74 22.58,0 40.76,-3.04 54.53,-9.13 13.77,-6.09 23.82,-14.21 30.16,-24.35 6.33,-10.15 9.5,-22.12 9.5,-35.92 0,-19.48 -6.06,-34.9 -18.18,-46.27 -12.12,-11.37 -27.82,-20.7 -47.1,-28.01 -19.28,-7.3 -40.62,-14.61 -64.03,-21.92 -23.41,-7.3 -46.82,-16.64 -70.23,-28.01 -23.41,-11.36 -44.76,-26.18 -64.03,-44.44 -19.28,-18.27 -34.98,-42.21 -47.1,-71.84 -12.12,-29.63 -18.17,-67.17 -18.17,-112.63 0,-51.14 9.5,-97.41 28.5,-138.81 19,-41.4 47.51,-74.68 85.51,-99.84 38.01,-25.16 85.38,-37.75 142.11,-37.75 38.01,0 75.33,6.29 111.96,18.87 36.63,12.58 69.27,31.05 97.91,55.4l-50.4 178.99c-27.54,-21.92 -54.81,-38.36 -81.8,-49.31 -26.99,-10.96 -53.15,-16.44 -78.5,-16.44 -22.58,0 -40.76,3.45 -54.53,10.35 -13.77,6.9 -23.69,16.03 -29.75,27.4 -6.06,11.36 -9.09,24.35 -9.09,38.96 0,18.67 5.92,33.48 17.76,44.44 11.85,10.96 27.54,19.89 47.09,26.79 19.56,6.9 41.04,14 64.45,21.31 23.41,7.3 46.82,16.44 70.23,27.39 23.41,10.96 44.76,25.57 64.04,43.83 19.28,18.27 34.84,42.21 46.68,71.84 11.84,29.63 17.76,66.77 17.76,111.41 0,49.52 -9.5,95.18 -28.5,136.98 -19.01,41.81 -47.37,75.29 -85.1,100.46 -37.73,25.16 -85.24,37.75 -142.53,37.75z"/>
   <path class="fil1" d="M42.61 886.08l0 -852.34 281.31 0c56.26,0 104.76,12.58 145.49,37.75 40.73,25.16 72.23,61.49 94.5,108.98 22.27,47.49 33.41,103.7 33.41,168.64 0,64.13 -11.14,119.53 -33.41,166.21 -22.27,46.68 -53.77,82.39 -94.5,107.15 -40.73,24.76 -89.23,37.14 -145.49,37.14l-184.61 0 77.36 -101.06 0 327.54 -174.06 0zm380.65 0l-152.96 -310.49 185.49 0 153.84 310.49 -186.37 0zm-206.59 -301.97l-77.36 -110.8 174.06 0c36.33,0 63.44,-10.96 81.31,-32.88 17.87,-21.92 26.81,-52.36 26.81,-91.32 0,-39.78 -8.94,-70.62 -26.81,-92.54 -17.87,-21.92 -44.98,-32.88 -81.31,-32.88l-174.06 0 77.36 -110.8 0 471.22z"/>
   <path class="fil2" d="M5.67 886.08l0 -852.34 284.12 0c56.82,0 105.8,12.58 146.94,37.75 41.14,25.16 72.96,61.49 95.45,108.98 22.49,47.49 33.74,103.7 33.74,168.64 0,64.13 -11.24,119.53 -33.74,166.21 -22.49,46.68 -54.31,82.39 -95.45,107.15 -41.14,24.76 -90.12,37.14 -146.94,37.14l-186.45 0 78.13 -101.06 0 327.54 -175.8 0zm384.45 0l-154.49 -310.49 187.34 0 155.38 310.49 -188.23 0zm-208.65 -301.97l-78.13 -110.8 175.8 0c36.7,0 64.07,-10.96 82.13,-32.88 18.05,-21.92 27.08,-52.36 27.08,-91.32 0,-39.78 -9.03,-70.62 -27.08,-92.54 -18.05,-21.92 -45.43,-32.88 -82.13,-32.88l-175.8 0 78.13 -110.8 0 471.22z"/>
   <polygon class="fil4 str0" points="3057.36,574.01 2977.14,535.22 2899.83,579.53 2911.79,490.99 2845.89,430.89 2933.5,414.97 2970.08,333.51 3012.26,412.21 3100.77,421.97 3039.23,486.53 "/>
  </g>
 </g>
</svg>
