<?xml version="1.0" encoding="UTF-8"?>
<!DOCTYPE svg PUBLIC "-//W3C//DTD SVG 1.1//EN" "http://www.w3.org/Graphics/SVG/1.1/DTD/svg11.dtd">
<!-- Creator: CorelDRAW 2020 (64-Bit) -->
<svg xmlns="http://www.w3.org/2000/svg" xml:space="preserve" width="68.168mm" height="43.9532mm" version="1.1" style="shape-rendering:geometricPrecision; text-rendering:geometricPrecision; image-rendering:optimizeQuality; fill-rule:evenodd; clip-rule:evenodd"
viewBox="0 0 37788.08 24364.91"
 xmlns:xlink="http://www.w3.org/1999/xlink"
 xmlns:xodm="http://www.corel.com/coreldraw/odm/2003">
 <defs>
  <style type="text/css">
   <![CDATA[
    .str0 {stroke:red;stroke-width:110.87;stroke-miterlimit:22.9256}
    .fil0 {fill:blue}
    .fil1 {fill:#FEFEFE;fill-rule:nonzero}
    .fil2 {fill:red;fill-rule:nonzero}
    .fil3 {fill:red;fill-rule:nonzero}
    .fil4 {fill:white;fill-rule:nonzero}
   ]]>
  </style>
 </defs>
 <g id="Слой_x0020_1">
  <metadata id="CorelCorpID_0Corel-Layer"/>
  <g id="_2697753337312">
   <polygon class="fil0" points="5357.51,12605.69 13282.98,12605.69 13282.98,6257.7 5357.51,6257.7 "/>
   <polygon class="fil0" points="23085.55,12523.1 37788.08,12523.1 37788.08,6198.05 23085.55,6198.05 "/>
   <path class="fil1" d="M33732.94 12821.77c-532.33,0 -996.92,-119.13 -1393.49,-357.33 -396.52,-238.42 -704.01,-565.2 -922.25,-980.57 -218.35,-415.48 -327.45,-883.95 -327.45,-1405.58 0,-534.66 107.76,-1008.01 323.4,-1420.1 215.53,-412.26 511.1,-734.33 886.44,-966.1 375.18,-231.88 797.19,-347.85 1265.66,-347.85 431.22,0 829.12,103 1193.88,309.21 364.7,206.05 657.39,512.04 878.35,917.76 220.9,405.66 331.38,908.06 331.38,1507.08 0,77.16 -2.55,162.48 -7.98,255.94 -5.38,93.41 -10.53,178.72 -15.96,256.05l-3361.78 0 0 -1052.96 2403.55 0 -678.73 280.11c0,-206.16 -30.65,-381.66 -91.91,-526.45 -61.25,-144.96 -145.13,-257.71 -251.5,-338.15 -106.43,-80.6 -234.21,-120.79 -383.32,-120.79 -149.12,0 -278.11,40.19 -387.2,120.79 -109.26,80.43 -193.13,193.19 -251.67,338.15 -58.54,144.79 -87.75,320.3 -87.75,526.45l0 328.45c0,225.39 37.2,418.58 111.7,579.62 74.5,161.04 181.05,281.83 319.52,362.26 138.42,80.55 306.11,120.73 503.12,120.73 202.22,0 368.52,-32.21 499.01,-96.57 130.32,-64.36 267.58,-161.04 411.32,-289.86l942.26 1149.7c-212.98,276.89 -475.12,487.82 -786.66,632.78 -311.37,144.9 -685.49,217.24 -1121.92,217.24z"/>
   <polygon class="fil1" points="27468.98,9324.73 27468.98,7730.68 30767.01,7730.68 30767.01,9324.73 "/>
   <path class="fil1" d="M29976.41 12821.77c-601.51,0 -1070.04,-175.5 -1405.47,-526.51 -335.32,-351.01 -502.95,-890.32 -502.95,-1618l0 -4424.56 1804.59 0 0 4405.21c0,161.04 35.98,286.48 107.93,376.67 71.79,90.19 161.04,135.37 267.58,135.37 154.27,0 289.97,-48.39 407.22,-144.96l431.16 1516.61c-138.42,96.68 -304.72,167.52 -499.18,212.59 -194.3,45.12 -397.9,67.57 -610.88,67.57z"/>
   <path class="fil1" d="M26187.9 8367.89c-330.05,0 -593.58,-106.27 -790.54,-318.8 -197.01,-212.59 -295.46,-476.62 -295.46,-792.2 0,-315.58 98.45,-579.62 295.46,-792.2 196.96,-212.37 460.49,-318.69 790.54,-318.69 330.16,0 593.58,99.78 790.54,299.51 197.01,199.56 295.57,457.16 295.57,772.86 0,334.76 -98.56,610.16 -295.57,825.85 -196.96,215.8 -460.38,323.68 -790.54,323.68z"/>
   <polygon class="fil1" points="25285.55,12725.26 25285.55,8621.39 27090.31,8621.39 27090.31,12725.26 "/>
   <path class="fil2" d="M22031.65 12486.23c-705.06,0.17 -1569.66,-182.82 -2226.39,-400.62 -858.78,-284.98 -1367.77,-2238.58 -1647.71,-3024.35 826.02,29.93 1363.28,3.33 1946.72,12.92 279.05,4.55 465.37,383.32 847.75,612.43 300.34,179.88 906.23,120.9 1125.42,121.01 272.12,-0.06 471.96,-92.08 628.12,-140.91 155.88,-48.84 206.66,-232.6 278.72,-325.23 71.9,-92.52 164.36,-293.74 164.31,-424.73 -0.06,-207.27 -84.2,-371.02 -252.56,-491.03 -168.24,-120.01 -390.64,-220.96 -667.03,-302.83 -276.56,-81.71 -578.89,-169.02 -907.45,-261.7 -328.61,-92.63 -659.22,-215.36 -991.71,-368.19 -332.49,-152.72 -637.04,-354.5 -913.49,-605.5 -276.56,-251 -499.01,-581.17 -667.31,-990.38 -168.3,-409.21 -252.67,-919.48 -252.83,-1530.75 -0.17,-709.44 145.85,-1356.3 438.31,-1940.35 292.3,-584.05 728.79,-1050.75 1309.68,-1400.15 580.78,-349.34 1303.97,-524.24 2169.29,-524.46 568.81,-0.11 1129.8,81.71 1682.58,245.29 552.9,163.47 1049.69,414.42 1490.56,752.73l-852.63 2799.85c-416.75,-283.6 -819.31,-496.41 -1208.07,-638.15 -388.65,-141.91 -767.26,-212.64 -1135.84,-212.59 -272.4,0.11 -488.76,32.87 -648.96,98.34 -160.31,65.63 -274.4,152.83 -342.53,262.09 -68.02,109.15 -102.05,229.22 -102,360.26 0.06,196.46 84.15,351.89 252.56,466.53 168.19,114.58 390.53,210.04 667.03,286.32 276.39,76.33 580.89,158.21 913.49,245.35 332.55,87.25 662.99,207.27 991.6,359.93 328.56,152.89 631.11,354.67 907.67,605.67 276.39,251 498.9,578.28 667.2,982.12 168.41,403.83 252.67,905.95 252.78,1506.3 0.17,698.47 -145.96,1339.83 -438.26,1923.83 -292.36,584.05 -726.9,1053.46 -1303.64,1408.41 -576.95,354.89 -1301.92,532.33 -2175.39,532.55z"/>
   <path class="fil1" d="M7851.03 12781.36c-346.07,0 -658.83,-103.49 -938.33,-310.37 -279.5,-206.93 -499.13,-530.94 -658.77,-972.09 -159.76,-441.14 -239.58,-1009.17 -239.58,-1704.09l0 -3537.06 1804.7 0 0 3080.29c0,452.84 50.61,769.09 151.72,948.64 101.17,179.61 239.58,269.41 415.25,269.41 106.43,0 206.27,-41.02 299.45,-123.01 93.13,-81.99 169.02,-218.63 227.61,-409.88 58.54,-191.3 87.81,-443.14 87.81,-755.45l0 -3010 1804.7 0 0 6406.48 -1716.84 0 0 -1850.49 343.36 503.62c-154.38,499.68 -374.01,868.65 -658.83,1106.79 -284.76,238.14 -592.25,357.22 -922.25,357.22z"/>
   <path class="fil3" d="M-0 12366.11l0 -12366.11 4123.83 0c799.35,0 1490.84,188.47 2074.11,565.31 583.16,376.84 1033.95,915.77 1352.08,1616.39 318.13,700.79 477.12,1528.14 477.12,2482.16 0,953.9 -158.98,1775.43 -477.12,2464.31 -318.13,689.04 -768.92,1216.05 -1352.08,1581.14 -583.27,365.03 -1274.75,547.57 -2074.11,547.57l-2520.68 0 1284.79 -1713.51 0 4822.74 -2887.93 0zm2887.93 -4363.41l-1284.79 -1890.35 2337.09 0c399.68,0 695.53,-129.55 887.22,-388.59 191.75,-259.04 287.48,-612.38 287.48,-1059.89 0,-447.52 -95.73,-800.96 -287.48,-1060 -191.69,-259.1 -487.54,-388.59 -887.22,-388.59l-2337.09 0 1284.79 -1890.35 0 6677.77z"/>
   <polygon class="fil0" points="16410.72,24118.01 28665.85,24118.01 28665.85,16848.43 16410.72,16848.43 "/>
   <path class="fil4" d="M19041.61 24117.95c-527.34,0 -987.5,-119.24 -1380.41,-357.66 -392.86,-238.48 -697.41,-565.54 -913.66,-981.18 -216.19,-415.7 -324.34,-884.56 -324.34,-1406.52 0,-534.94 106.82,-1008.62 320.41,-1421.04 213.59,-412.48 506.28,-734.66 878.07,-966.71 371.79,-231.99 789.76,-347.96 1253.8,-347.96 427.17,0 821.36,103.11 1182.62,309.32 361.26,206.21 651.35,512.32 870.14,918.32 218.91,406.05 328.28,908.73 328.28,1508.08 0,77.33 -2.61,162.7 -7.87,256.16 -5.27,93.41 -10.59,178.83 -15.85,256.16l-3330.29 0 0 -1053.68 2381.05 0 -672.41 280.33c0,-206.21 -30.27,-381.83 -90.91,-526.84 -60.64,-145.01 -143.74,-257.77 -249.17,-338.31 -105.49,-80.6 -232.1,-120.85 -379.72,-120.85 -147.68,0 -275.56,40.24 -383.66,120.85 -108.15,80.55 -191.19,193.3 -249.23,338.31 -57.98,145.01 -86.98,320.63 -86.98,526.84l0 328.67c0,225.56 36.92,418.91 110.76,580 73.78,161.15 179.27,281.99 316.42,362.54 137.09,80.55 303.22,120.85 498.35,120.85 200.39,0 365.2,-32.26 494.41,-96.68 129.22,-64.47 264.97,-161.15 407.38,-290.03l933.45 1150.36c-210.98,277.11 -470.69,488.15 -779.18,633.16 -308.49,145.01 -679.01,217.52 -1111.45,217.52z"/>
   <path id="1" class="fil4" d="M24705.55 24117.95c-395.52,0 -714.6,-96.68 -957.23,-290.03 -242.58,-193.3 -417.92,-492.97 -526.01,-899.02 -108.15,-406 -162.14,-924.75 -162.14,-1556.3 0,-625.13 57.98,-1139.11 174.01,-1541.89 116.02,-402.78 296.68,-702.46 541.86,-899.02 245.18,-196.57 555.06,-294.8 929.51,-294.8 379.67,0 727.73,109.54 1044.21,328.67 316.36,219.07 569.53,533.27 759.39,942.48 189.86,409.21 284.76,897.42 284.76,1464.56 0,567.09 -94.9,1055.29 -284.76,1464.5 -189.86,409.21 -443.03,725.02 -759.39,947.36 -316.47,222.29 -664.54,333.49 -1044.21,333.49zm-2887.38 -96.68l0 -7172.8 1787.79 0 0 2590.75 -79.1 1933.36 -7.93 1933.36 0 715.32 -1700.76 0zm2460.21 -1604.7c131.82,0 250.45,-38.64 355.94,-116.02 105.49,-77.33 189.86,-194.91 253.17,-352.84 63.31,-157.88 94.9,-349.62 94.9,-575.13 0,-232.05 -31.6,-423.74 -94.9,-575.18 -63.31,-151.45 -147.68,-265.86 -253.17,-343.19 -105.49,-77.33 -224.12,-116.02 -355.94,-116.02 -131.82,0 -250.51,38.69 -356,116.02 -105.44,77.33 -189.86,191.75 -253.17,343.19 -63.25,151.45 -94.9,343.13 -94.9,575.18 0,225.5 31.65,417.25 94.9,575.13 63.31,157.93 147.73,275.51 253.17,352.84 105.49,77.39 224.17,116.02 356,116.02z"/>
   <polygon class="fil2" points="7379.79,24364.91 3555.02,9256.88 6161.68,8618.73 9810.94,21912.35 8182.52,21912.35 10844.34,9101 13493.08,9091.91 16031.61,21912.35 14469.71,21912.35 18159.54,9064.47 20449.96,9851.41 16277.18,24364.91 13794.19,24364.91 11666.59,13474.95 12574.21,13474.95 9385.6,24364.91 "/>
   <polygon class="fil3 str0" points="15399.17,7249.02 13496.68,6328.93 11663.15,7379.79 11946.81,5280.01 10383.85,3854.75 12461.67,3477.08 13329.21,1545.33 14329.68,3411.67 16428.85,3643.11 14969.33,5174.24 "/>
  </g>
 </g>
</svg>
