<?xml version="1.0" encoding="UTF-8"?>
<!DOCTYPE svg PUBLIC "-//W3C//DTD SVG 1.1//EN" "http://www.w3.org/Graphics/SVG/1.1/DTD/svg11.dtd">
<!-- Creator: CorelDRAW 2020 (64-Bit) -->
<svg xmlns="http://www.w3.org/2000/svg" xml:space="preserve" width="20.5483mm" height="21.5395mm" version="1.1" style="shape-rendering:geometricPrecision; text-rendering:geometricPrecision; image-rendering:optimizeQuality; fill-rule:evenodd; clip-rule:evenodd"
viewBox="0 0 74.59 78.19"
 xmlns:xlink="http://www.w3.org/1999/xlink"
 xmlns:xodm="http://www.corel.com/coreldraw/odm/2003">
 <defs>
  <style type="text/css">
   <![CDATA[
    .str0 {stroke:#FEFEFE;stroke-width:1.28;stroke-miterlimit:10}
    .str1 {stroke:#393185;stroke-width:0.28;stroke-miterlimit:10}
    .fil0 {fill:#393185}
    .fil3 {fill:#393185;fill-rule:nonzero}
    .fil5 {fill:#003399;fill-rule:nonzero}
    .fil2 {fill:red;fill-rule:nonzero}
    .fil4 {fill:red;fill-rule:nonzero}
    .fil1 {fill:white;fill-rule:nonzero}
   ]]>
  </style>
 </defs>
 <g id="Слой_x0020_1">
  <metadata id="CorelCorpID_0Corel-Layer"/>
  <polygon class="fil0" points="15.62,32.69 39.15,32.69 39.15,17.25 15.62,17.25 "/>
  <polygon class="fil0" points="44.7,65.34 74.59,65.34 74.59,45.82 44.7,45.82 "/>
  <path class="fil1" d="M51.76 65.34c-1.42,0 -2.65,-0.32 -3.71,-0.96 -1.05,-0.64 -1.87,-1.52 -2.45,-2.63 -0.58,-1.12 -0.87,-2.37 -0.87,-3.78 0,-1.44 0.29,-2.71 0.86,-3.82 0.57,-1.11 1.36,-1.97 2.36,-2.6 1,-0.62 2.12,-0.93 3.37,-0.93 1.15,0 2.21,0.28 3.18,0.83 0.97,0.55 1.75,1.38 2.34,2.47 0.59,1.09 0.88,2.44 0.88,4.05 0,0.21 -0.01,0.44 -0.02,0.69 -0.01,0.25 -0.03,0.48 -0.04,0.69l-8.94 0 0 -2.83 6.39 0 -1.81 0.75c0,-0.55 -0.08,-1.03 -0.24,-1.41 -0.16,-0.39 -0.39,-0.69 -0.67,-0.91 -0.28,-0.22 -0.62,-0.32 -1.02,-0.32 -0.4,0 -0.74,0.11 -1.03,0.32 -0.29,0.22 -0.51,0.52 -0.67,0.91 -0.16,0.39 -0.23,0.86 -0.23,1.41l0 0.88c0,0.61 0.1,1.12 0.3,1.56 0.2,0.43 0.48,0.76 0.85,0.97 0.37,0.22 0.81,0.32 1.34,0.32 0.54,0 0.98,-0.09 1.33,-0.26 0.35,-0.17 0.71,-0.43 1.09,-0.78l2.51 3.09c-0.57,0.74 -1.26,1.31 -2.09,1.7 -0.83,0.39 -1.82,0.58 -2.98,0.58zm15.21 0c-1.06,0 -1.92,-0.26 -2.57,-0.78 -0.65,-0.52 -1.12,-1.32 -1.41,-2.41 -0.29,-1.09 -0.43,-2.48 -0.43,-4.18 0,-1.68 0.16,-3.06 0.47,-4.14 0.31,-1.08 0.8,-1.89 1.45,-2.41 0.66,-0.53 1.49,-0.79 2.5,-0.79 1.02,0 1.95,0.29 2.8,0.88 0.85,0.59 1.53,1.43 2.04,2.53 0.51,1.1 0.76,2.41 0.76,3.93 0,1.52 -0.26,2.83 -0.76,3.93 -0.51,1.1 -1.19,1.95 -2.04,2.54 -0.85,0.6 -1.78,0.9 -2.8,0.9zm-7.75 -0.26l0 -19.26 4.8 0 0 6.96 -0.21 5.19 -0.02 5.19 0 1.92 -4.57 0zm6.61 -4.31c0.35,0 0.67,-0.1 0.96,-0.31 0.28,-0.21 0.51,-0.52 0.68,-0.95 0.17,-0.42 0.25,-0.94 0.25,-1.54 0,-0.62 -0.08,-1.14 -0.25,-1.54 -0.17,-0.41 -0.4,-0.71 -0.68,-0.92 -0.28,-0.21 -0.6,-0.31 -0.96,-0.31 -0.35,0 -0.67,0.1 -0.96,0.31 -0.28,0.21 -0.51,0.51 -0.68,0.92 -0.17,0.41 -0.25,0.92 -0.25,1.54 0,0.61 0.08,1.12 0.25,1.54 0.17,0.42 0.4,0.74 0.68,0.95 0.28,0.21 0.6,0.31 0.96,0.31z"/>
  <polygon class="fil2" points="22.91,65.42 15.42,32.17 23.55,32.17 29.6,60.24 25.52,60.24 31.94,32.17 39.2,32.17 45.18,60.24 41.27,60.24 47.59,32.17 55.08,32.17 47.59,65.42 39.13,65.42 34.25,42.43 36.52,42.43 31.37,65.42 "/>
  <path class="fil2" d="M9.84 78.12c-1.89,0 -3.72,-0.31 -5.49,-0.93 -1.76,-0.62 -3.22,-1.42 -4.36,-2.41l2.45 -7.96c1.08,0.89 2.28,1.61 3.6,2.15 1.32,0.54 2.61,0.81 3.86,0.81 0.73,0 1.31,-0.07 1.73,-0.21 0.42,-0.14 0.73,-0.34 0.92,-0.6 0.19,-0.26 0.29,-0.58 0.29,-0.95 0,-0.59 -0.23,-1.05 -0.68,-1.39 -0.45,-0.34 -1.05,-0.62 -1.79,-0.86 -0.74,-0.23 -1.55,-0.48 -2.44,-0.74 -0.88,-0.26 -1.77,-0.61 -2.66,-1.04 -0.89,-0.43 -1.71,-1 -2.45,-1.71 -0.74,-0.71 -1.34,-1.64 -1.79,-2.8 -0.45,-1.16 -0.68,-2.6 -0.68,-4.33 0,-2 0.39,-3.83 1.18,-5.48 0.79,-1.65 1.96,-2.97 3.52,-3.96 1.56,-0.99 3.5,-1.48 5.82,-1.48 1.53,0 3.03,0.23 4.52,0.69 1.48,0.46 2.82,1.17 4,2.13l-2.29 7.91c-1.12,-0.8 -2.2,-1.4 -3.24,-1.8 -1.04,-0.4 -2.06,-0.6 -3.05,-0.6 -0.73,0 -1.31,0.09 -1.74,0.28 -0.43,0.19 -0.74,0.43 -0.92,0.74 -0.18,0.31 -0.27,0.65 -0.27,1.02 0,0.56 0.23,0.99 0.68,1.32 0.45,0.32 1.05,0.59 1.79,0.81 0.74,0.22 1.56,0.45 2.45,0.69 0.89,0.25 1.78,0.59 2.66,1.02 0.88,0.43 1.69,1 2.44,1.71 0.74,0.71 1.34,1.63 1.79,2.78 0.45,1.14 0.68,2.56 0.68,4.26 0,1.97 -0.39,3.79 -1.18,5.44 -0.79,1.65 -1.95,2.98 -3.5,3.98 -1.55,1 -3.5,1.5 -5.84,1.5z"/>
  <path class="fil3 str0" d="M16.55 77.29l0 -14.22 4.93 0 0 14.22 -4.93 0zm2.47 -15.36c-0.9,0 -1.62,-0.29 -2.16,-0.86 -0.54,-0.57 -0.81,-1.28 -0.81,-2.13 0,-0.85 0.27,-1.56 0.81,-2.13 0.54,-0.57 1.26,-0.86 2.16,-0.86 0.9,0 1.62,0.27 2.16,0.81 0.54,0.54 0.81,1.23 0.81,2.08 0,0.9 -0.27,1.64 -0.81,2.22 -0.54,0.58 -1.26,0.87 -2.16,0.87zm10.35 15.62c-1.64,0 -2.92,-0.47 -3.84,-1.42 -0.92,-0.94 -1.37,-2.4 -1.37,-4.35l0 -11.91 4.93 0 0 11.85c0,0.43 0.1,0.77 0.29,1.01 0.2,0.24 0.44,0.36 0.73,0.36 0.42,0 0.79,-0.13 1.11,-0.39l1.18 4.08c-0.38,0.26 -0.83,0.45 -1.36,0.57 -0.53,0.12 -1.09,0.18 -1.67,0.18zm-6.85 -9.41l0 -4.29 9.01 0 0 4.29 -9.01 0zm17.11 9.41c-1.45,0 -2.72,-0.32 -3.81,-0.96 -1.08,-0.64 -1.92,-1.52 -2.52,-2.64 -0.6,-1.12 -0.89,-2.38 -0.89,-3.78 0,-1.44 0.29,-2.71 0.88,-3.82 0.59,-1.11 1.4,-1.98 2.42,-2.6 1.03,-0.62 2.18,-0.94 3.46,-0.94 1.18,0 2.27,0.28 3.26,0.83 1,0.55 1.8,1.38 2.4,2.47 0.6,1.09 0.91,2.44 0.91,4.06 0,0.21 -0.01,0.44 -0.02,0.69 -0.01,0.25 -0.03,0.48 -0.04,0.69l-9.18 0 0 -2.83 6.57 0 -1.85 0.75c0,-0.55 -0.08,-1.03 -0.25,-1.42 -0.17,-0.39 -0.4,-0.69 -0.69,-0.91 -0.29,-0.22 -0.64,-0.33 -1.05,-0.33 -0.41,0 -0.76,0.11 -1.06,0.33 -0.3,0.22 -0.53,0.52 -0.69,0.91 -0.16,0.39 -0.24,0.86 -0.24,1.42l0 0.88c0,0.61 0.1,1.13 0.31,1.56 0.2,0.43 0.49,0.76 0.87,0.98 0.38,0.22 0.84,0.32 1.37,0.32 0.55,0 1.01,-0.09 1.36,-0.26 0.36,-0.17 0.73,-0.43 1.12,-0.78l2.57 3.09c-0.58,0.75 -1.3,1.31 -2.15,1.7 -0.85,0.39 -1.87,0.58 -3.07,0.58z"/>
  <path class="fil4" d="M1.75 33.2l0 -33.2 11.07 0c2.15,0 4,0.51 5.57,1.52 1.57,1.01 2.78,2.46 3.63,4.34 0.85,1.88 1.28,4.1 1.28,6.66 0,2.56 -0.43,4.77 -1.28,6.62 -0.85,1.85 -2.06,3.26 -3.63,4.25 -1.57,0.98 -3.42,1.47 -5.57,1.47l-6.77 0 3.45 -4.6 0 12.95 -7.75 0zm13.77 0l-5.65 -12.09 8.21 0 5.72 12.09 -8.28 0zm-6.01 -11.72l-3.45 -5.08 6.27 0c1.07,0 1.87,-0.35 2.38,-1.04 0.51,-0.7 0.77,-1.64 0.77,-2.85 0,-1.2 -0.26,-2.15 -0.77,-2.85 -0.51,-0.7 -1.31,-1.04 -2.38,-1.04l-6.27 0 3.45 -5.08 0 17.93z"/>
  <path class="fil1" d="M29.64 33.04c-2.15,0 -3.82,-0.66 -5.02,-1.99 -1.2,-1.33 -1.8,-3.19 -1.8,-5.59l0 -8.82 4.72 0 0 8.66c0,1.22 0.19,2.09 0.58,2.6 0.39,0.51 0.91,0.77 1.56,0.77 0.67,0 1.19,-0.26 1.57,-0.77 0.38,-0.51 0.57,-1.38 0.57,-2.6l0 -8.66 4.64 0 0 8.82c0,2.4 -0.6,4.26 -1.8,5.59 -1.2,1.33 -2.87,1.99 -5.02,1.99z"/>
  <path class="fil5 str1" d="M16.48 77.26l0 -14.22 4.93 0 0 14.22 -4.93 0zm2.47 -15.36c-0.9,0 -1.62,-0.29 -2.16,-0.86 -0.54,-0.57 -0.81,-1.28 -0.81,-2.13 0,-0.85 0.27,-1.56 0.81,-2.13 0.54,-0.57 1.26,-0.86 2.16,-0.86 0.9,0 1.62,0.27 2.16,0.81 0.54,0.54 0.81,1.23 0.81,2.08 0,0.9 -0.27,1.64 -0.81,2.22 -0.54,0.58 -1.26,0.87 -2.16,0.87zm10.35 15.62c-1.64,0 -2.92,-0.47 -3.84,-1.42 -0.92,-0.94 -1.37,-2.4 -1.37,-4.35l0 -11.91 4.93 0 0 11.85c0,0.43 0.1,0.77 0.29,1.01 0.2,0.24 0.44,0.36 0.73,0.36 0.42,0 0.79,-0.13 1.11,-0.39l1.18 4.08c-0.38,0.26 -0.83,0.45 -1.36,0.57 -0.53,0.12 -1.09,0.18 -1.67,0.18zm-6.85 -9.41l0 -4.29 9.01 0 0 4.29 -9.01 0zm17.11 9.41c-1.45,0 -2.72,-0.32 -3.81,-0.96 -1.08,-0.64 -1.92,-1.52 -2.52,-2.64 -0.6,-1.12 -0.89,-2.38 -0.89,-3.78 0,-1.44 0.29,-2.71 0.88,-3.82 0.59,-1.11 1.4,-1.98 2.42,-2.6 1.03,-0.62 2.18,-0.94 3.46,-0.94 1.18,0 2.27,0.28 3.26,0.83 1,0.55 1.8,1.38 2.4,2.47 0.6,1.09 0.91,2.44 0.91,4.06 0,0.21 -0.01,0.44 -0.02,0.69 -0.01,0.25 -0.03,0.48 -0.04,0.69l-9.18 0 0 -2.83 6.57 0 -1.85 0.75c0,-0.55 -0.08,-1.03 -0.25,-1.42 -0.17,-0.39 -0.4,-0.69 -0.69,-0.91 -0.29,-0.22 -0.64,-0.33 -1.05,-0.33 -0.41,0 -0.76,0.11 -1.06,0.33 -0.3,0.22 -0.53,0.52 -0.69,0.91 -0.16,0.39 -0.24,0.86 -0.24,1.42l0 0.88c0,0.61 0.1,1.13 0.31,1.56 0.2,0.43 0.49,0.76 0.87,0.98 0.38,0.22 0.84,0.32 1.37,0.32 0.55,0 1.01,-0.09 1.36,-0.26 0.36,-0.17 0.73,-0.43 1.12,-0.78l2.57 3.09c-0.58,0.75 -1.3,1.31 -2.15,1.7 -0.85,0.39 -1.87,0.58 -3.07,0.58z"/>
 </g>
</svg>
